<mxfile host="app.diagrams.net" agent="Mozilla/5.0 (Macintosh; Intel Mac OS X 10_15_7) AppleWebKit/537.36 (KHTML, like Gecko) Chrome/130.0.0.0 Safari/537.36" version="26.0.6">
  <diagram name="Страница — 1" id="v-CqK8m1W-iMPDRArlWF">
    <mxGraphModel dx="2637" dy="991" grid="1" gridSize="10" guides="1" tooltips="1" connect="1" arrows="1" fold="1" page="1" pageScale="1" pageWidth="827" pageHeight="1169" math="0" shadow="0">
      <root>
        <mxCell id="0" />
        <mxCell id="1" parent="0" />
        <mxCell id="d6qvty1agFoo5PzQy7P5-10" style="edgeStyle=orthogonalEdgeStyle;rounded=0;orthogonalLoop=1;jettySize=auto;html=1;" edge="1" parent="1" source="d6qvty1agFoo5PzQy7P5-1" target="d6qvty1agFoo5PzQy7P5-7">
          <mxGeometry relative="1" as="geometry" />
        </mxCell>
        <mxCell id="d6qvty1agFoo5PzQy7P5-14" value="Финансовые данные" style="edgeLabel;html=1;align=center;verticalAlign=middle;resizable=0;points=[];" vertex="1" connectable="0" parent="d6qvty1agFoo5PzQy7P5-10">
          <mxGeometry x="-0.4519" y="2" relative="1" as="geometry">
            <mxPoint as="offset" />
          </mxGeometry>
        </mxCell>
        <mxCell id="d6qvty1agFoo5PzQy7P5-1" value="Финансовый домен" style="rounded=0;whiteSpace=wrap;html=1;" vertex="1" parent="1">
          <mxGeometry x="180" y="450" width="120" height="60" as="geometry" />
        </mxCell>
        <mxCell id="d6qvty1agFoo5PzQy7P5-9" style="edgeStyle=orthogonalEdgeStyle;rounded=0;orthogonalLoop=1;jettySize=auto;html=1;entryX=0.5;entryY=0;entryDx=0;entryDy=0;" edge="1" parent="1" source="d6qvty1agFoo5PzQy7P5-3" target="d6qvty1agFoo5PzQy7P5-7">
          <mxGeometry relative="1" as="geometry" />
        </mxCell>
        <mxCell id="d6qvty1agFoo5PzQy7P5-17" value="Пользовательские данные" style="edgeLabel;html=1;align=center;verticalAlign=middle;resizable=0;points=[];" vertex="1" connectable="0" parent="d6qvty1agFoo5PzQy7P5-9">
          <mxGeometry x="-0.16" y="4" relative="1" as="geometry">
            <mxPoint as="offset" />
          </mxGeometry>
        </mxCell>
        <mxCell id="d6qvty1agFoo5PzQy7P5-3" value="Пользовательский домен" style="rounded=0;whiteSpace=wrap;html=1;" vertex="1" parent="1">
          <mxGeometry x="400" y="100" width="120" height="60" as="geometry" />
        </mxCell>
        <mxCell id="d6qvty1agFoo5PzQy7P5-12" style="edgeStyle=orthogonalEdgeStyle;rounded=0;orthogonalLoop=1;jettySize=auto;html=1;entryX=1;entryY=0.5;entryDx=0;entryDy=0;" edge="1" parent="1" source="d6qvty1agFoo5PzQy7P5-4" target="d6qvty1agFoo5PzQy7P5-6">
          <mxGeometry relative="1" as="geometry" />
        </mxCell>
        <mxCell id="d6qvty1agFoo5PzQy7P5-13" value="Медицинские данные" style="edgeLabel;html=1;align=center;verticalAlign=middle;resizable=0;points=[];" vertex="1" connectable="0" parent="d6qvty1agFoo5PzQy7P5-12">
          <mxGeometry x="-0.08" y="4" relative="1" as="geometry">
            <mxPoint as="offset" />
          </mxGeometry>
        </mxCell>
        <mxCell id="d6qvty1agFoo5PzQy7P5-4" value="Медицинский домен" style="rounded=0;whiteSpace=wrap;html=1;" vertex="1" parent="1">
          <mxGeometry x="230" y="310" width="120" height="60" as="geometry" />
        </mxCell>
        <mxCell id="d6qvty1agFoo5PzQy7P5-11" style="edgeStyle=orthogonalEdgeStyle;rounded=0;orthogonalLoop=1;jettySize=auto;html=1;" edge="1" parent="1" source="d6qvty1agFoo5PzQy7P5-5" target="d6qvty1agFoo5PzQy7P5-7">
          <mxGeometry relative="1" as="geometry" />
        </mxCell>
        <mxCell id="d6qvty1agFoo5PzQy7P5-16" value="Аналитические данные" style="edgeLabel;html=1;align=center;verticalAlign=middle;resizable=0;points=[];" vertex="1" connectable="0" parent="d6qvty1agFoo5PzQy7P5-11">
          <mxGeometry x="-0.5385" y="-3" relative="1" as="geometry">
            <mxPoint as="offset" />
          </mxGeometry>
        </mxCell>
        <mxCell id="d6qvty1agFoo5PzQy7P5-5" value="Операционный домен" style="rounded=0;whiteSpace=wrap;html=1;" vertex="1" parent="1">
          <mxGeometry x="180" y="570" width="120" height="60" as="geometry" />
        </mxCell>
        <mxCell id="d6qvty1agFoo5PzQy7P5-6" value="Медицинский ИИ домен" style="rounded=0;whiteSpace=wrap;html=1;" vertex="1" parent="1">
          <mxGeometry x="-90" y="310" width="120" height="60" as="geometry" />
        </mxCell>
        <mxCell id="d6qvty1agFoo5PzQy7P5-7" value="Аналитический домен" style="rounded=0;whiteSpace=wrap;html=1;" vertex="1" parent="1">
          <mxGeometry x="400" y="310" width="120" height="60" as="geometry" />
        </mxCell>
      </root>
    </mxGraphModel>
  </diagram>
</mxfile>
